<?xml version="1.0" standalone="no"?>
<!DOCTYPE svg PUBLIC "-//W3C//DTD SVG 20010904//EN"
 "http://www.w3.org/TR/2001/REC-SVG-20010904/DTD/svg10.dtd">
<svg version="1.0" xmlns="http://www.w3.org/2000/svg"
 width="512.000000pt" height="512.000000pt" viewBox="0 0 512.000000 512.000000"
 preserveAspectRatio="xMidYMid meet">
<metadata>
Created by potrace 1.14, written by Peter Selinger 2001-2017
</metadata>
<g transform="translate(0.000000,512.000000) scale(0.100000,-0.100000)"
fill="#000000" stroke="none">
<path d="M3697 3835 c-351 -57 -628 -260 -781 -570 -260 -529 -105 -1140 361
-1419 125 -75 277 -124 458 -147 142 -18 422 -6 575 26 118 24 329 90 431 133
l46 20 7 144 c7 141 20 293 32 375 l6 42 114 26 c79 19 114 31 114 41 0 12
-79 14 -510 14 -426 0 -510 -2 -510 -14 0 -10 45 -20 176 -37 97 -13 180 -27
185 -30 17 -10 31 -133 31 -284 0 -127 -12 -269 -25 -281 -2 -2 -66 -13 -143
-25 -215 -32 -361 -13 -540 70 -431 202 -635 665 -513 1161 100 407 436 660
879 660 131 0 469 -47 492 -69 4 -4 27 -76 51 -161 l44 -155 42 -3 c42 -3 43
-3 37 25 -2 15 -8 125 -12 244 l-6 217 -227 -2 c-124 0 -338 2 -476 6 -198 6
-268 5 -338 -7z m298 -32 c-326 -27 -508 -85 -685 -219 -50 -37 -65 -45 -45
-24 71 75 249 172 387 210 103 28 177 38 288 37 52 0 77 -2 55 -4z m-791 -315
c-3 -7 -17 -22 -32 -32 -27 -19 -27 -19 2 12 32 35 38 38 30 20z m-59 -77 c-3
-6 -11 -11 -17 -11 -6 0 -6 6 2 15 14 17 26 13 15 -4z m-80 -136 c-185 -375
-142 -840 107 -1148 173 -215 450 -345 771 -364 64 -3 103 -9 95 -14 -18 -12
-117 -11 -218 2 -442 54 -772 325 -882 724 -19 69 -22 105 -22 265 0 167 3
194 26 281 14 52 40 130 58 172 31 74 107 203 115 195 2 -2 -20 -53 -50 -113z
m1505 -1084 c0 -221 -2 -260 -15 -265 -13 -5 -15 28 -15 259 0 229 2 265 15
265 13 0 15 -35 15 -259z"/>
<path d="M60 3806 c0 -9 2 -16 4 -16 12 0 350 -51 352 -53 8 -8 26 -267 35
-512 16 -418 2 -1022 -32 -1338 -10 -96 -14 -108 -33 -112 -11 -3 -77 -14
-146 -25 -69 -11 -140 -22 -157 -25 -18 -3 -33 -10 -33 -16 0 -7 261 -9 773
-6 849 4 827 2 997 68 238 92 441 287 542 522 154 356 113 809 -100 1106 -118
166 -277 279 -490 351 -188 63 -187 63 -984 67 -655 4 -728 3 -728 -11z m1163
-43 c-13 -2 -33 -2 -45 0 -13 2 -3 4 22 4 25 0 35 -2 23 -4z m115 -10 c-10 -2
-26 -2 -35 0 -10 3 -2 5 17 5 19 0 27 -2 18 -5z m-738 -993 c0 -983 0 -990
-20 -990 -20 0 -20 7 -20 990 0 983 0 990 20 990 20 0 20 -7 20 -990z m803
983 c-7 -2 -21 -2 -30 0 -10 3 -4 5 12 5 17 0 24 -2 18 -5z m119 -22 c277 -71
482 -245 610 -517 122 -261 127 -615 11 -885 -92 -215 -233 -364 -438 -467
-98 -48 -117 -47 -25 2 171 92 301 228 390 411 79 163 95 243 95 480 0 188 -2
206 -28 299 -52 187 -124 319 -237 436 -119 123 -213 179 -390 231 -109 32
-100 39 12 10z m-215 -26 c376 -71 630 -301 717 -650 41 -165 40 -420 -4 -590
-27 -104 -106 -264 -167 -340 -129 -159 -324 -270 -537 -306 -116 -19 -311 3
-438 51 -51 19 -56 24 -62 58 -4 20 -9 278 -12 573 -6 498 3 923 24 1128 7 62
8 65 38 73 115 29 295 31 441 3z"/>
</g>
</svg>
